<mxfile host="app.diagrams.net" agent="Mozilla/5.0 (Macintosh; Intel Mac OS X 10.15; rv:130.0) Gecko/20100101 Firefox/130.0" version="24.7.16">
  <diagram id="DZtfx0B-PbVDx4SnkWmA" name="Task III-sm-oblig-1">
    <mxGraphModel dx="5047" dy="4538" grid="0" gridSize="10" guides="1" tooltips="1" connect="1" arrows="1" fold="1" page="1" pageScale="1" pageWidth="827" pageHeight="1169" math="0" shadow="0">
      <root>
        <mxCell id="0" />
        <mxCell id="1" parent="0" />
        <mxCell id="Ngai-gHBjCo3r--L5Kp5-36" style="edgeStyle=orthogonalEdgeStyle;rounded=0;orthogonalLoop=1;jettySize=auto;html=1;exitX=0.5;exitY=1;exitDx=0;exitDy=0;fontFamily=Helvetica;fontSize=12;fontColor=default;resizable=0;" parent="1" edge="1">
          <mxGeometry relative="1" as="geometry">
            <mxPoint x="539.9999999999995" y="350" as="sourcePoint" />
            <mxPoint x="539.9999999999995" y="350" as="targetPoint" />
          </mxGeometry>
        </mxCell>
        <mxCell id="djjioMmtYzZsj6S9Dpu0-6" value="&lt;font style=&quot;font-size: 14px;&quot;&gt;&lt;b&gt;Frontend&lt;/b&gt;&lt;/font&gt;" style="html=1;align=center;verticalAlign=top;rounded=1;absoluteArcSize=1;arcSize=10;dashed=0;whiteSpace=wrap;fillColor=#ffffff;movable=1;resizable=1;rotatable=1;deletable=1;editable=1;locked=0;connectable=1;" parent="1" vertex="1">
          <mxGeometry x="-529" y="-1408" width="1466" height="1127" as="geometry" />
        </mxCell>
        <mxCell id="djjioMmtYzZsj6S9Dpu0-7" value="" style="html=1;verticalAlign=bottom;startArrow=circle;startFill=1;endArrow=open;startSize=6;endSize=8;curved=0;rounded=0;entryX=0.5;entryY=0;entryDx=0;entryDy=0;movable=1;resizable=1;rotatable=1;deletable=1;editable=1;locked=0;connectable=1;" parent="1" target="djjioMmtYzZsj6S9Dpu0-9" edge="1">
          <mxGeometry width="80" relative="1" as="geometry">
            <mxPoint x="-484" y="-1081" as="sourcePoint" />
            <mxPoint x="-383" y="-976" as="targetPoint" />
          </mxGeometry>
        </mxCell>
        <mxCell id="djjioMmtYzZsj6S9Dpu0-8" value="init" style="edgeLabel;html=1;align=center;verticalAlign=middle;resizable=0;points=[];rounded=1;dashed=0;strokeColor=default;arcSize=10;fontFamily=Helvetica;fontSize=12;fontColor=default;fillColor=#ffffff;" parent="djjioMmtYzZsj6S9Dpu0-7" vertex="1" connectable="0">
          <mxGeometry x="-0.3386" y="3" relative="1" as="geometry">
            <mxPoint x="9" y="-5" as="offset" />
          </mxGeometry>
        </mxCell>
        <mxCell id="djjioMmtYzZsj6S9Dpu0-9" value="start" style="html=1;align=center;verticalAlign=top;rounded=1;absoluteArcSize=1;arcSize=10;dashed=0;whiteSpace=wrap;movable=1;resizable=1;rotatable=1;deletable=1;editable=1;locked=0;connectable=1;" parent="1" vertex="1">
          <mxGeometry x="-388" y="-953" width="87" height="40" as="geometry" />
        </mxCell>
        <mxCell id="djjioMmtYzZsj6S9Dpu0-10" value="&lt;b&gt;EventSession&lt;/b&gt;" style="html=1;align=center;verticalAlign=top;rounded=1;absoluteArcSize=1;arcSize=10;dashed=0;whiteSpace=wrap;movable=1;resizable=1;rotatable=1;deletable=1;editable=1;locked=0;connectable=1;" parent="1" vertex="1">
          <mxGeometry x="-385" y="-513" width="87" height="40" as="geometry" />
        </mxCell>
        <mxCell id="djjioMmtYzZsj6S9Dpu0-11" value="" style="endArrow=open;endFill=1;endSize=12;html=1;rounded=0;movable=1;resizable=1;rotatable=1;deletable=1;editable=1;locked=0;connectable=1;exitX=0.5;exitY=1;exitDx=0;exitDy=0;entryX=0.5;entryY=0;entryDx=0;entryDy=0;" parent="1" target="djjioMmtYzZsj6S9Dpu0-10" edge="1">
          <mxGeometry width="160" relative="1" as="geometry">
            <mxPoint x="-343" y="-910" as="sourcePoint" />
            <mxPoint x="-346" y="-679" as="targetPoint" />
            <Array as="points" />
          </mxGeometry>
        </mxCell>
        <mxCell id="djjioMmtYzZsj6S9Dpu0-12" value="&lt;font face=&quot;Times New Roman&quot;&gt;&lt;code&gt;?initiateslogin&lt;/code&gt;&lt;/font&gt; / !verifyLogin" style="text;html=1;align=center;verticalAlign=middle;resizable=0;points=[];autosize=1;strokeColor=none;fillColor=none;" parent="1" vertex="1">
          <mxGeometry x="-440" y="-869" width="198" height="27" as="geometry" />
        </mxCell>
        <mxCell id="djjioMmtYzZsj6S9Dpu0-13" value="&lt;b&gt;searchEvent&lt;/b&gt;" style="html=1;align=center;verticalAlign=top;rounded=1;absoluteArcSize=1;arcSize=10;dashed=0;whiteSpace=wrap;movable=1;resizable=1;rotatable=1;deletable=1;editable=1;locked=0;connectable=1;" parent="1" vertex="1">
          <mxGeometry x="-79" y="-764" width="87" height="40" as="geometry" />
        </mxCell>
        <mxCell id="djjioMmtYzZsj6S9Dpu0-15" value="" style="endArrow=open;endFill=1;endSize=12;html=1;rounded=0;movable=1;resizable=1;rotatable=1;deletable=1;editable=1;locked=0;connectable=1;exitX=1;exitY=0.75;exitDx=0;exitDy=0;entryX=0.5;entryY=1;entryDx=0;entryDy=0;" parent="1" source="djjioMmtYzZsj6S9Dpu0-10" target="djjioMmtYzZsj6S9Dpu0-13" edge="1">
          <mxGeometry width="160" relative="1" as="geometry">
            <mxPoint x="-287" y="-476" as="sourcePoint" />
            <mxPoint x="-68" y="-727" as="targetPoint" />
            <Array as="points" />
          </mxGeometry>
        </mxCell>
        <mxCell id="djjioMmtYzZsj6S9Dpu0-22" value="&lt;b&gt;DisplayEvents&lt;/b&gt;" style="html=1;align=center;verticalAlign=top;rounded=1;absoluteArcSize=1;arcSize=10;dashed=0;whiteSpace=wrap;movable=1;resizable=1;rotatable=1;deletable=1;editable=1;locked=0;connectable=1;" parent="1" vertex="1">
          <mxGeometry x="111" y="-473" width="138" height="38" as="geometry" />
        </mxCell>
        <mxCell id="djjioMmtYzZsj6S9Dpu0-24" value="" style="endArrow=open;endFill=1;endSize=12;html=1;rounded=0;movable=1;resizable=1;rotatable=1;deletable=1;editable=1;locked=0;connectable=1;exitX=1;exitY=1;exitDx=0;exitDy=0;entryX=0.5;entryY=0;entryDx=0;entryDy=0;" parent="1" edge="1">
          <mxGeometry width="160" relative="1" as="geometry">
            <mxPoint x="-21" y="-724" as="sourcePoint" />
            <mxPoint x="151" y="-473" as="targetPoint" />
            <Array as="points" />
          </mxGeometry>
        </mxCell>
        <mxCell id="djjioMmtYzZsj6S9Dpu0-26" value="&lt;b&gt;eventConfirmation&lt;/b&gt;" style="html=1;align=center;verticalAlign=top;rounded=1;absoluteArcSize=1;arcSize=10;dashed=0;whiteSpace=wrap;movable=1;resizable=1;rotatable=1;deletable=1;editable=1;locked=0;connectable=1;" parent="1" vertex="1">
          <mxGeometry x="515.5" y="-470" width="138" height="38" as="geometry" />
        </mxCell>
        <mxCell id="djjioMmtYzZsj6S9Dpu0-27" value="" style="endArrow=open;endFill=1;endSize=12;html=1;rounded=0;movable=1;resizable=1;rotatable=1;deletable=1;editable=1;locked=0;connectable=1;exitX=1;exitY=0.5;exitDx=0;exitDy=0;entryX=0;entryY=0.5;entryDx=0;entryDy=0;" parent="1" source="djjioMmtYzZsj6S9Dpu0-22" target="djjioMmtYzZsj6S9Dpu0-26" edge="1">
          <mxGeometry width="160" relative="1" as="geometry">
            <mxPoint x="18" y="-714" as="sourcePoint" />
            <mxPoint x="190" y="-463" as="targetPoint" />
            <Array as="points" />
          </mxGeometry>
        </mxCell>
        <mxCell id="5Va4AovIdovlFm69FADF-1" value="&lt;b&gt;Tickets(displayselectedTicket)&lt;/b&gt;" style="html=1;align=center;verticalAlign=top;rounded=1;absoluteArcSize=1;arcSize=10;dashed=0;whiteSpace=wrap;movable=1;resizable=1;rotatable=1;deletable=1;editable=1;locked=0;connectable=1;" parent="1" vertex="1">
          <mxGeometry x="522" y="-714" width="221" height="38" as="geometry" />
        </mxCell>
        <mxCell id="5Va4AovIdovlFm69FADF-2" value="" style="endArrow=open;endFill=1;endSize=12;html=1;rounded=0;movable=1;resizable=1;rotatable=1;deletable=1;editable=1;locked=0;connectable=1;exitX=0.63;exitY=0.092;exitDx=0;exitDy=0;entryX=0.353;entryY=0.987;entryDx=0;entryDy=0;entryPerimeter=0;exitPerimeter=0;" parent="1" source="djjioMmtYzZsj6S9Dpu0-26" target="5Va4AovIdovlFm69FADF-1" edge="1">
          <mxGeometry width="160" relative="1" as="geometry">
            <mxPoint x="358" y="-586" as="sourcePoint" />
            <mxPoint x="625" y="-583" as="targetPoint" />
            <Array as="points" />
          </mxGeometry>
        </mxCell>
        <mxCell id="rFFY3CnrM-wsOj-qo-VZ-1" value="&lt;b&gt;Booking&lt;/b&gt;confirmation" style="html=1;align=center;verticalAlign=top;rounded=1;absoluteArcSize=1;arcSize=10;dashed=0;whiteSpace=wrap;movable=1;resizable=1;rotatable=1;deletable=1;editable=1;locked=0;connectable=1;" parent="1" vertex="1">
          <mxGeometry x="537" y="-989" width="153" height="38" as="geometry" />
        </mxCell>
        <mxCell id="rFFY3CnrM-wsOj-qo-VZ-2" value="" style="endArrow=open;endFill=1;endSize=12;html=1;rounded=0;movable=1;resizable=1;rotatable=1;deletable=1;editable=1;locked=0;connectable=1;" parent="1" edge="1">
          <mxGeometry width="160" relative="1" as="geometry">
            <mxPoint x="610" y="-717" as="sourcePoint" />
            <mxPoint x="610" y="-950" as="targetPoint" />
            <Array as="points" />
          </mxGeometry>
        </mxCell>
        <mxCell id="rFFY3CnrM-wsOj-qo-VZ-3" value="" style="endArrow=open;endFill=1;endSize=12;html=1;rounded=0;movable=1;resizable=1;rotatable=1;deletable=1;editable=1;locked=0;connectable=1;exitX=1;exitY=0.25;exitDx=0;exitDy=0;entryX=1;entryY=0.5;entryDx=0;entryDy=0;" parent="1" source="rFFY3CnrM-wsOj-qo-VZ-1" target="5Va4AovIdovlFm69FADF-1" edge="1">
          <mxGeometry width="160" relative="1" as="geometry">
            <mxPoint x="649.9999999999995" y="-993" as="sourcePoint" />
            <mxPoint x="756" y="-690" as="targetPoint" />
            <Array as="points">
              <mxPoint x="823" y="-979" />
              <mxPoint x="828" y="-695" />
            </Array>
          </mxGeometry>
        </mxCell>
        <mxCell id="T3a9ZmDEApglosdtLz4W-1" value="&lt;b&gt;ProcessPayment&lt;/b&gt;" style="html=1;align=center;verticalAlign=top;rounded=1;absoluteArcSize=1;arcSize=10;dashed=0;whiteSpace=wrap;movable=1;resizable=1;rotatable=1;deletable=1;editable=1;locked=0;connectable=1;" parent="1" vertex="1">
          <mxGeometry x="527" y="-1255" width="153" height="38" as="geometry" />
        </mxCell>
        <mxCell id="KEubldXJ_OvQ2OoOTwrb-1" value="" style="endArrow=open;endFill=1;endSize=12;html=1;rounded=0;movable=1;resizable=1;rotatable=1;deletable=1;editable=1;locked=0;connectable=1;entryX=0.5;entryY=1;entryDx=0;entryDy=0;" parent="1" target="T3a9ZmDEApglosdtLz4W-1" edge="1">
          <mxGeometry width="160" relative="1" as="geometry">
            <mxPoint x="602.5" y="-996" as="sourcePoint" />
            <mxPoint x="583" y="-1233" as="targetPoint" />
            <Array as="points" />
          </mxGeometry>
        </mxCell>
        <mxCell id="uvLVVWFFGh15himehiwX-1" value="?createUserConfig" style="text;html=1;align=center;verticalAlign=middle;resizable=0;points=[];autosize=1;strokeColor=none;fillColor=none;" parent="1" vertex="1">
          <mxGeometry x="285" y="-1100" width="118" height="26" as="geometry" />
        </mxCell>
        <mxCell id="icou8VLfQWJOenY3WF3t-1" value="&lt;b&gt;auth&lt;/b&gt;" style="html=1;align=center;verticalAlign=top;rounded=1;absoluteArcSize=1;arcSize=10;dashed=0;whiteSpace=wrap;movable=1;resizable=1;rotatable=1;deletable=1;editable=1;locked=0;connectable=1;" parent="1" vertex="1">
          <mxGeometry x="241" y="-993" width="153" height="38" as="geometry" />
        </mxCell>
        <mxCell id="icou8VLfQWJOenY3WF3t-2" value="" style="endArrow=open;endFill=1;endSize=12;html=1;rounded=0;movable=1;resizable=1;rotatable=1;deletable=1;editable=1;locked=0;connectable=1;entryX=0.395;entryY=0.079;entryDx=0;entryDy=0;entryPerimeter=0;" parent="1" edge="1">
          <mxGeometry width="160" relative="1" as="geometry">
            <mxPoint x="527" y="-1236" as="sourcePoint" />
            <mxPoint x="311.43499999999995" y="-988.998" as="targetPoint" />
            <Array as="points">
              <mxPoint x="363" y="-1203" />
            </Array>
          </mxGeometry>
        </mxCell>
        <mxCell id="icou8VLfQWJOenY3WF3t-4" value="&lt;font face=&quot;Times New Roman&quot; style=&quot;font-size: 14px;&quot;&gt;?submitPaymentDetails /!displayPaymentOption&lt;/font&gt;" style="text;html=1;align=center;verticalAlign=middle;resizable=0;points=[];autosize=1;strokeColor=none;fillColor=none;" parent="1" vertex="1">
          <mxGeometry x="502" y="-1094" width="291" height="29" as="geometry" />
        </mxCell>
        <mxCell id="M0AdCi2PORJpU8boj5dm-1" value="" style="endArrow=open;endFill=1;endSize=12;html=1;rounded=0;movable=1;resizable=1;rotatable=1;deletable=1;editable=1;locked=0;connectable=1;exitX=1;exitY=0;exitDx=0;exitDy=0;" parent="1" source="icou8VLfQWJOenY3WF3t-1" edge="1">
          <mxGeometry width="160" relative="1" as="geometry">
            <mxPoint x="550.25" y="-984" as="sourcePoint" />
            <mxPoint x="550.25" y="-1217" as="targetPoint" />
            <Array as="points" />
          </mxGeometry>
        </mxCell>
        <mxCell id="M0AdCi2PORJpU8boj5dm-2" value="?authorizationError / !retry" style="text;html=1;align=center;verticalAlign=middle;resizable=0;points=[];autosize=1;strokeColor=none;fillColor=none;" parent="1" vertex="1">
          <mxGeometry x="414" y="-1173" width="157" height="26" as="geometry" />
        </mxCell>
        <mxCell id="VcMcNShA5KSV5oFSjKZ9-1" value="&lt;b&gt;payment&lt;/b&gt;" style="html=1;align=center;verticalAlign=top;rounded=1;absoluteArcSize=1;arcSize=10;dashed=0;whiteSpace=wrap;movable=1;resizable=1;rotatable=1;deletable=1;editable=1;locked=0;connectable=1;" parent="1" vertex="1">
          <mxGeometry x="-67" y="-1195" width="153" height="38" as="geometry" />
        </mxCell>
        <mxCell id="VcMcNShA5KSV5oFSjKZ9-2" value="" style="endArrow=open;endFill=1;endSize=12;html=1;rounded=0;movable=1;resizable=1;rotatable=1;deletable=1;editable=1;locked=0;connectable=1;entryX=1;entryY=1;entryDx=0;entryDy=0;exitX=0.046;exitY=0;exitDx=0;exitDy=0;exitPerimeter=0;" parent="1" source="icou8VLfQWJOenY3WF3t-1" target="VcMcNShA5KSV5oFSjKZ9-1" edge="1">
          <mxGeometry width="160" relative="1" as="geometry">
            <mxPoint x="243" y="-1005" as="sourcePoint" />
            <mxPoint x="108.25" y="-1169" as="targetPoint" />
            <Array as="points" />
          </mxGeometry>
        </mxCell>
        <mxCell id="VcMcNShA5KSV5oFSjKZ9-3" value="?enterPaymentDetail / &lt;code&gt;&lt;font face=&quot;Times New Roman&quot;&gt;!initiatePaymentRequest&lt;/font&gt;&lt;/code&gt;" style="text;html=1;align=center;verticalAlign=middle;resizable=0;points=[];autosize=1;strokeColor=none;fillColor=none;" parent="1" vertex="1">
          <mxGeometry x="-9" y="-1117" width="258" height="27" as="geometry" />
        </mxCell>
        <mxCell id="dzUqb5A4fl-SugooX11P-1" value="?reportPaymentFailure / retryOrCancelPayment" style="text;html=1;align=center;verticalAlign=middle;resizable=0;points=[];autosize=1;strokeColor=none;fillColor=none;" parent="1" vertex="1">
          <mxGeometry x="93" y="-1290" width="272" height="26" as="geometry" />
        </mxCell>
        <mxCell id="-XF1X6hYTeEMACt4HQT1-1" value="" style="endArrow=open;endFill=1;endSize=12;html=1;rounded=0;movable=1;resizable=1;rotatable=1;deletable=1;editable=1;locked=0;connectable=1;entryX=0.154;entryY=0.053;entryDx=0;entryDy=0;entryPerimeter=0;" parent="1" target="T3a9ZmDEApglosdtLz4W-1" edge="1">
          <mxGeometry width="160" relative="1" as="geometry">
            <mxPoint x="33" y="-1200" as="sourcePoint" />
            <mxPoint x="523" y="-1243" as="targetPoint" />
            <Array as="points">
              <mxPoint x="38" y="-1298" />
              <mxPoint x="551" y="-1305" />
            </Array>
          </mxGeometry>
        </mxCell>
        <mxCell id="A66c0Qc3PGcBEOnthQgY-1" value="?confirmPaymentSuccess / !sucess" style="text;html=1;align=center;verticalAlign=middle;resizable=0;points=[];autosize=1;strokeColor=none;fillColor=none;" parent="1" vertex="1">
          <mxGeometry x="-253" y="-1065" width="207" height="26" as="geometry" />
        </mxCell>
        <mxCell id="OngQZ7VfuHmuCFWW6tO3-1" value="" style="endArrow=open;endFill=1;endSize=12;html=1;rounded=0;movable=1;resizable=1;rotatable=1;deletable=1;editable=1;locked=0;connectable=1;exitX=0.114;exitY=0.974;exitDx=0;exitDy=0;exitPerimeter=0;" parent="1" source="VcMcNShA5KSV5oFSjKZ9-1" edge="1">
          <mxGeometry width="160" relative="1" as="geometry">
            <mxPoint x="258" y="-983" as="sourcePoint" />
            <mxPoint x="-294" y="-945" as="targetPoint" />
            <Array as="points" />
          </mxGeometry>
        </mxCell>
        <mxCell id="mF78SnIiZuTfbOPvTTuB-3" value="?Success / !loginSuccess " style="text;html=1;align=center;verticalAlign=middle;resizable=0;points=[];autosize=1;strokeColor=none;fillColor=none;" parent="1" vertex="1">
          <mxGeometry x="-306" y="-556" width="154" height="26" as="geometry" />
        </mxCell>
        <mxCell id="S7Ek8jZ5ywwP0bNV-GPN-1" value="?startSearchEevent /!queriesEventDetails" style="text;html=1;align=center;verticalAlign=middle;resizable=0;points=[];autosize=1;strokeColor=none;fillColor=none;" parent="1" vertex="1">
          <mxGeometry x="-301" y="-688" width="240" height="26" as="geometry" />
        </mxCell>
        <mxCell id="WLQ-xSbtCE-NAcfJl5T8-1" value="?returnEventDetail /!displayEvents" style="text;html=1;align=center;verticalAlign=middle;resizable=0;points=[];autosize=1;strokeColor=none;fillColor=none;" parent="1" vertex="1">
          <mxGeometry x="-28" y="-645" width="201" height="26" as="geometry" />
        </mxCell>
        <mxCell id="sifdTwn0WLE5i3zGdlxJ-1" value="?chooseEvent / !confirmChosenEvent" style="text;html=1;align=center;verticalAlign=middle;resizable=0;points=[];autosize=1;strokeColor=none;fillColor=none;" parent="1" vertex="1">
          <mxGeometry x="265" y="-490" width="219" height="26" as="geometry" />
        </mxCell>
        <mxCell id="oPKCmNWRzIx3EBexyaQL-1" value="&lt;div&gt;?confirmsSelection / !&lt;font face=&quot;Times New Roman&quot;&gt;&lt;code&gt;submitBookingRequest&lt;/code&gt;&lt;/font&gt;/ !&lt;font face=&quot;Helvetica&quot;&gt;&lt;code&gt;displaySelectedTickets&lt;/code&gt;&lt;/font&gt;&lt;/div&gt;" style="text;html=1;align=center;verticalAlign=middle;resizable=0;points=[];autosize=1;strokeColor=none;fillColor=none;" parent="1" vertex="1">
          <mxGeometry x="386" y="-589" width="446" height="27" as="geometry" />
        </mxCell>
        <mxCell id="xf_0LfO4WKNgXGmNMUaJ-1" value="?&lt;font face=&quot;Helvetica&quot;&gt;cancelBooking / !cancellation&lt;/font&gt;" style="text;html=1;align=center;verticalAlign=middle;resizable=0;points=[];autosize=1;strokeColor=none;fillColor=none;" parent="1" vertex="1">
          <mxGeometry x="705" y="-902" width="179" height="26" as="geometry" />
        </mxCell>
        <mxCell id="H0rKBrsqAjUj3rF0REG6-1" value="?confirmsBooking / !&lt;font face=&quot;Helvetica&quot;&gt;&lt;code&gt;finalizeBookingConfirmation&lt;/code&gt;&lt;/font&gt;" style="text;html=1;align=center;verticalAlign=middle;resizable=0;points=[];autosize=1;strokeColor=none;fillColor=none;" parent="1" vertex="1">
          <mxGeometry x="408" y="-848" width="322" height="27" as="geometry" />
        </mxCell>
        <mxCell id="GPOdeHnkpoGx9bxXJeVz-1" value="" style="line;strokeWidth=1;fillColor=none;align=left;verticalAlign=middle;spacingTop=-1;spacingLeft=3;spacingRight=3;rotatable=1;labelPosition=right;points=[];portConstraint=eastwest;strokeColor=inherit;movable=1;resizable=1;deletable=1;editable=1;locked=0;connectable=1;" parent="1" vertex="1">
          <mxGeometry x="-525" y="-1402" width="1462" height="53" as="geometry" />
        </mxCell>
        <mxCell id="gkQZ_KDyEBBbutqzQ7S5-1" value="&lt;b&gt;&lt;font style=&quot;font-size: 14px;&quot;&gt;EventDatabase&lt;/font&gt;&lt;/b&gt;" style="html=1;align=center;verticalAlign=top;rounded=1;absoluteArcSize=1;arcSize=10;dashed=0;whiteSpace=wrap;fillColor=#ffffff;movable=1;resizable=1;rotatable=1;deletable=1;editable=1;locked=0;connectable=1;" parent="1" vertex="1">
          <mxGeometry x="-493.5" y="23" width="1342.5" height="730" as="geometry" />
        </mxCell>
        <mxCell id="gkQZ_KDyEBBbutqzQ7S5-2" value="" style="endArrow=none;html=1;rounded=0;fontFamily=Helvetica;fontSize=12;fontColor=default;resizable=1;movable=1;rotatable=1;deletable=1;editable=1;locked=0;connectable=1;exitX=0.006;exitY=0.076;exitDx=0;exitDy=0;exitPerimeter=0;entryX=1.006;entryY=0.071;entryDx=0;entryDy=0;entryPerimeter=0;" parent="1" edge="1">
          <mxGeometry width="50" height="50" relative="1" as="geometry">
            <mxPoint x="-493.4950000000002" y="63.65000000000002" as="sourcePoint" />
            <mxPoint x="849.0050000000003" y="59.99999999999993" as="targetPoint" />
          </mxGeometry>
        </mxCell>
        <mxCell id="gkQZ_KDyEBBbutqzQ7S5-4" value="Idle" style="html=1;align=center;verticalAlign=top;rounded=1;absoluteArcSize=1;arcSize=10;dashed=0;whiteSpace=wrap;movable=1;resizable=1;rotatable=1;deletable=1;editable=1;locked=0;connectable=1;" parent="1" vertex="1">
          <mxGeometry x="-340" y="294" width="127" height="46" as="geometry" />
        </mxCell>
        <mxCell id="gkQZ_KDyEBBbutqzQ7S5-10" value="" style="html=1;verticalAlign=bottom;startArrow=circle;startFill=1;endArrow=open;startSize=6;endSize=8;curved=0;rounded=0;entryX=0.5;entryY=0;entryDx=0;entryDy=0;movable=1;resizable=1;rotatable=1;deletable=1;editable=1;locked=0;connectable=1;" parent="1" edge="1">
          <mxGeometry width="80" relative="1" as="geometry">
            <mxPoint x="-447" y="169" as="sourcePoint" />
            <mxPoint x="-308" y="297" as="targetPoint" />
          </mxGeometry>
        </mxCell>
        <mxCell id="gkQZ_KDyEBBbutqzQ7S5-11" value="init" style="edgeLabel;html=1;align=center;verticalAlign=middle;resizable=0;points=[];rounded=1;dashed=0;strokeColor=default;arcSize=10;fontFamily=Helvetica;fontSize=12;fontColor=default;fillColor=#ffffff;" parent="gkQZ_KDyEBBbutqzQ7S5-10" vertex="1" connectable="0">
          <mxGeometry x="-0.3386" y="3" relative="1" as="geometry">
            <mxPoint x="9" y="-5" as="offset" />
          </mxGeometry>
        </mxCell>
        <mxCell id="gkQZ_KDyEBBbutqzQ7S5-12" value="UserVerification" style="html=1;align=center;verticalAlign=top;rounded=1;absoluteArcSize=1;arcSize=10;dashed=0;whiteSpace=wrap;movable=1;resizable=1;rotatable=1;deletable=1;editable=1;locked=0;connectable=1;" parent="1" vertex="1">
          <mxGeometry x="-337" y="575" width="127" height="46" as="geometry" />
        </mxCell>
        <mxCell id="gkQZ_KDyEBBbutqzQ7S5-13" value="" style="endArrow=open;endFill=1;endSize=12;html=1;rounded=0;entryX=0.5;entryY=0;entryDx=0;entryDy=0;exitX=0.5;exitY=1;exitDx=0;exitDy=0;" parent="1" source="gkQZ_KDyEBBbutqzQ7S5-4" target="gkQZ_KDyEBBbutqzQ7S5-12" edge="1">
          <mxGeometry width="160" relative="1" as="geometry">
            <mxPoint x="-267" y="378" as="sourcePoint" />
            <mxPoint x="-107" y="378" as="targetPoint" />
          </mxGeometry>
        </mxCell>
        <mxCell id="gkQZ_KDyEBBbutqzQ7S5-14" value="EventsProcessing" style="html=1;align=center;verticalAlign=top;rounded=1;absoluteArcSize=1;arcSize=10;dashed=0;whiteSpace=wrap;movable=1;resizable=1;rotatable=1;deletable=1;editable=1;locked=0;connectable=1;" parent="1" vertex="1">
          <mxGeometry x="213" y="294" width="127" height="46" as="geometry" />
        </mxCell>
        <mxCell id="gkQZ_KDyEBBbutqzQ7S5-15" value="" style="endArrow=open;endFill=1;endSize=12;html=1;rounded=0;entryX=0;entryY=0.5;entryDx=0;entryDy=0;" parent="1" target="gkQZ_KDyEBBbutqzQ7S5-14" edge="1">
          <mxGeometry width="160" relative="1" as="geometry">
            <mxPoint x="-215" y="315.75" as="sourcePoint" />
            <mxPoint x="-55" y="315.75" as="targetPoint" />
          </mxGeometry>
        </mxCell>
        <mxCell id="gkQZ_KDyEBBbutqzQ7S5-16" value="serviceAvailability" style="html=1;align=center;verticalAlign=top;rounded=1;absoluteArcSize=1;arcSize=10;dashed=0;whiteSpace=wrap;movable=1;resizable=1;rotatable=1;deletable=1;editable=1;locked=0;connectable=1;" parent="1" vertex="1">
          <mxGeometry x="221" y="587" width="127" height="46" as="geometry" />
        </mxCell>
        <mxCell id="gkQZ_KDyEBBbutqzQ7S5-17" value="" style="endArrow=open;endFill=1;endSize=12;html=1;rounded=0;exitX=0.5;exitY=1;exitDx=0;exitDy=0;entryX=0.5;entryY=0;entryDx=0;entryDy=0;" parent="1" source="gkQZ_KDyEBBbutqzQ7S5-14" target="gkQZ_KDyEBBbutqzQ7S5-16" edge="1">
          <mxGeometry width="160" relative="1" as="geometry">
            <mxPoint x="378" y="725" as="sourcePoint" />
            <mxPoint x="277" y="567" as="targetPoint" />
            <Array as="points" />
          </mxGeometry>
        </mxCell>
        <mxCell id="gkQZ_KDyEBBbutqzQ7S5-18" value="" style="endArrow=open;endFill=1;endSize=12;html=1;rounded=0;entryX=1;entryY=0.5;entryDx=0;entryDy=0;exitX=0;exitY=0.25;exitDx=0;exitDy=0;" parent="1" source="gkQZ_KDyEBBbutqzQ7S5-16" target="jyT7qlmzOKaw_5Xr2EyS-1" edge="1">
          <mxGeometry width="160" relative="1" as="geometry">
            <mxPoint x="218" y="592" as="sourcePoint" />
            <mxPoint x="538" y="725" as="targetPoint" />
          </mxGeometry>
        </mxCell>
        <mxCell id="gkQZ_KDyEBBbutqzQ7S5-19" value="?verifylogin /!success" style="text;html=1;align=center;verticalAlign=middle;resizable=0;points=[];autosize=1;strokeColor=none;fillColor=none;" parent="1" vertex="1">
          <mxGeometry x="-369" y="412" width="132" height="26" as="geometry" />
        </mxCell>
        <mxCell id="Jsu37uCoNWn0AmOfW--2-1" value="?queriesEventDetails / !returnEventDetails" style="text;html=1;align=center;verticalAlign=middle;resizable=0;points=[];autosize=1;strokeColor=none;fillColor=none;" parent="1" vertex="1">
          <mxGeometry x="-163" y="288" width="243" height="26" as="geometry" />
        </mxCell>
        <mxCell id="vzGSKIMXjyMDtFihCxFY-1" value="?&lt;font face=&quot;Times New Roman&quot;&gt;&lt;code&gt;checkTicketAvailability / !&lt;font face=&quot;Helvetica&quot;&gt;&lt;code&gt;confirmTicketAvailability&lt;/code&gt;&lt;/font&gt;&lt;/code&gt;&lt;/font&gt;" style="text;html=1;align=center;verticalAlign=middle;resizable=0;points=[];autosize=1;strokeColor=none;fillColor=none;" parent="1" vertex="1">
          <mxGeometry x="80" y="405" width="400" height="27" as="geometry" />
        </mxCell>
        <mxCell id="t3pYiBYv6dun8HBNH8KI-2" value="?" style="text;html=1;align=center;verticalAlign=middle;resizable=0;points=[];autosize=1;strokeColor=none;fillColor=none;" parent="1" vertex="1">
          <mxGeometry x="-406" y="1352" width="25" height="26" as="geometry" />
        </mxCell>
        <mxCell id="jyT7qlmzOKaw_5Xr2EyS-1" value="Logging" style="html=1;align=center;verticalAlign=top;rounded=1;absoluteArcSize=1;arcSize=10;dashed=0;whiteSpace=wrap;movable=1;resizable=1;rotatable=1;deletable=1;editable=1;locked=0;connectable=1;" parent="1" vertex="1">
          <mxGeometry x="-67" y="498" width="127" height="46" as="geometry" />
        </mxCell>
        <mxCell id="jyT7qlmzOKaw_5Xr2EyS-3" value="?logTicketAvailability" style="text;html=1;align=center;verticalAlign=middle;resizable=0;points=[];autosize=1;strokeColor=none;fillColor=none;" parent="1" vertex="1">
          <mxGeometry x="32" y="558" width="129" height="26" as="geometry" />
        </mxCell>
        <mxCell id="jyT7qlmzOKaw_5Xr2EyS-5" value="" style="endArrow=open;endFill=1;endSize=12;html=1;rounded=0;entryX=0.886;entryY=0.989;entryDx=0;entryDy=0;entryPerimeter=0;" parent="1" target="gkQZ_KDyEBBbutqzQ7S5-4" edge="1">
          <mxGeometry width="160" relative="1" as="geometry">
            <mxPoint x="-60" y="500" as="sourcePoint" />
            <mxPoint x="349" y="745" as="targetPoint" />
          </mxGeometry>
        </mxCell>
        <mxCell id="jyT7qlmzOKaw_5Xr2EyS-6" value="?return" style="text;html=1;align=center;verticalAlign=middle;resizable=0;points=[];autosize=1;strokeColor=none;fillColor=none;" parent="1" vertex="1">
          <mxGeometry x="-145" y="406" width="56" height="26" as="geometry" />
        </mxCell>
      </root>
    </mxGraphModel>
  </diagram>
</mxfile>
